# xmcd
#
# Track frame offsets: 
#        150
#        12192
#        23887
#        40687
#        53967
#        65225
#        75972
#        89310
#        101862
#        112487
#        124717
#        136275
#        148982
#        162810
#        172767
#        184625
#        195900
#        208667
#        218475
#        232957
#        253157
#        265145
#
# Disc length: 3852 seconds
#
# Revision: 5
# Processed by: cddbd v1.5.2PL0 Copyright (c) Steve Scherf et al.
# Submitted via: ExactAudioCopyFreeDBPlugin 1.0
#
DISCID=320f0a16
DTITLE=The Supremes - The Supremes [box set]
DYEAR=2000
DGENRE=Soul
TTITLE0=I Hear a Symphony
TTITLE1=My World is Empty Without You
TTITLE2=Everything is Good About You (stereo mix)
TTITLE3=Any Girl in Love (Knows What I'm Going Through)
TTITLE4=Surfer Boy (original mix)
TTITLE5=Dr. Goldfoot and the Bikini Machine
TTITLE6=Love is Like an Itching in My Heart
TTITLE7=You Can't Hurry Love
TTITLE8=Mother Dear (version 2)
TTITLE9=You Keep Me Hangin' On
TTITLE10=Going Down for the Third Time (original single mix)
TTITLE11=Love is Here and Now You're Gone (alternate version)
TTITLE12=There's No Stopping Us Now (original single mix)
TTITLE13=Come On and See Me (original mix)
TTITLE14=My Guy
TTITLE15=Falling in Love with Love
TTITLE16=The Happening (demo version)
TTITLE17=All I Know About You (stereo mix)
TTITLE18=When You Wish Upon a Star
TTITLE19=Somewhere (live)
TTITLE20=Group Introduction (live)
TTITLE21=You're Nobody 'Til Somebody Loves You (live)
EXTD=
EXTT0=
EXTT1=
EXTT2=
EXTT3=
EXTT4=
EXTT5=
EXTT6=
EXTT7=
EXTT8=
EXTT9=
EXTT10=
EXTT11=
EXTT12=
EXTT13=
EXTT14=
EXTT15=
EXTT16=
EXTT17=
EXTT18=
EXTT19=
EXTT20=
EXTT21=
PLAYORDER=
